<svg width="101" height="26" viewBox="0 0 101 26" fill="none" xmlns="http://www.w3.org/2000/svg">
<path d="M33.91 22V5.256L43.842 5.256C45.558 5.256 46.884 5.66333 47.82 6.478C48.7733 7.29267 49.25 8.46267 49.25 9.988C49.25 10.82 49.1027 11.5307 48.808 12.12C48.5307 12.7093 48.158 13.1773 47.69 13.524C48.3487 13.836 48.8687 14.2433 49.25 14.746C49.6313 15.2313 49.822 15.9593 49.822 16.93C49.822 18.5073 49.302 19.7467 48.262 20.648C47.2393 21.5493 45.8007 22 43.946 22H33.91ZM39.812 11.678H42.152C42.984 11.678 43.4 11.3053 43.4 10.56C43.4 9.86667 42.984 9.52 42.152 9.52H39.812V11.678ZM39.812 17.736H42.152C42.984 17.736 43.4 17.3633 43.4 16.618C43.4 15.9247 42.984 15.578 42.152 15.578H39.812V17.736ZM49.5638 22L56.0118 5.256L62.5378 5.256L68.9858 22L62.4338 22L61.2378 18.88H57.3118L56.1158 22H49.5638ZM57.9878 14.59H60.5358L59.2618 11.392L57.9878 14.59ZM70.2948 22V5.256L83.6848 5.256V9.78L76.5868 9.78V11.288H82.6968V15.968H76.5868V17.476H83.6848V22H70.2948ZM84.7166 22V5.256L94.1286 5.256C95.5673 5.256 96.7546 5.53333 97.6906 6.088C98.6266 6.62533 99.32 7.37067 99.7706 8.324C100.239 9.26 100.473 10.326 100.473 11.522C100.473 12.6487 100.178 13.6367 99.5886 14.486C99.0166 15.3353 98.3233 16.0373 97.5086 16.592C97.6993 16.7133 97.8466 16.852 97.9506 17.008C98.0546 17.1467 98.1413 17.294 98.2106 17.45L100.187 22H93.6346L91.9966 18.282C91.91 18.074 91.8146 17.9353 91.7106 17.866C91.6066 17.7793 91.4593 17.736 91.2686 17.736H91.0086V22L84.7166 22ZM91.0086 12.822H92.5426C93.5653 12.822 94.0766 12.3887 94.0766 11.522C94.0766 11.0367 93.9553 10.69 93.7126 10.482C93.4873 10.274 93.132 10.17 92.6466 10.17H91.0086V12.822Z" fill="#FDFDF9"/>
<path d="M3.71429 1C1.66563 1 0 2.60156 0 4.57143V22.4286C0 24.3984 1.66563 26 3.71429 26H22.2857C24.3344 26 26 24.3984 26 22.4286V4.57143C26 2.60156 24.3344 1 22.2857 1H3.71429ZM7.42857 11.7143C8.4558 11.7143 9.28571 12.5123 9.28571 13.5V18.8571C9.28571 19.8449 8.4558 20.6429 7.42857 20.6429C6.40134 20.6429 5.57143 19.8449 5.57143 18.8571V13.5C5.57143 12.5123 6.40134 11.7143 7.42857 11.7143ZM11.1429 8.14286C11.1429 7.15513 11.9728 6.35714 13 6.35714C14.0272 6.35714 14.8571 7.15513 14.8571 8.14286V18.8571C14.8571 19.8449 14.0272 20.6429 13 20.6429C11.9728 20.6429 11.1429 19.8449 11.1429 18.8571V8.14286ZM18.5714 15.2857C19.5987 15.2857 20.4286 16.0837 20.4286 17.0714V18.8571C20.4286 19.8449 19.5987 20.6429 18.5714 20.6429C17.5442 20.6429 16.7143 19.8449 16.7143 18.8571V17.0714C16.7143 16.0837 17.5442 15.2857 18.5714 15.2857Z" fill="#FDFDF9"/>
</svg>
