<svg width="164" height="27" viewBox="0 0 164 27" fill="none" xmlns="http://www.w3.org/2000/svg">
<path d="M134.189 26V18.174L131.305 18.174V16.984L138.585 16.984V18.174H135.715V26H134.189ZM139.808 26V16.984H146.094V18.174H141.334V20.904H145.576V22.08H141.334V24.824H146.094V26H139.808ZM151.596 26.14C150.112 26.14 148.988 25.734 148.222 24.922C147.466 24.11 147.088 23.0133 147.088 21.632C147.088 20.6427 147.247 19.7933 147.564 19.084C147.891 18.3653 148.386 17.8147 149.048 17.432C149.711 17.04 150.556 16.844 151.582 16.844C152.105 16.844 152.581 16.886 153.01 16.97C153.449 17.0447 153.855 17.1473 154.228 17.278V18.608C153.855 18.4587 153.454 18.3467 153.024 18.272C152.604 18.188 152.161 18.146 151.694 18.146C150.574 18.146 149.781 18.4447 149.314 19.042C148.857 19.6393 148.628 20.5027 148.628 21.632C148.628 22.6867 148.88 23.4893 149.384 24.04C149.888 24.5813 150.668 24.852 151.722 24.852C152.152 24.852 152.581 24.8193 153.01 24.754C153.449 24.6793 153.86 24.5673 154.242 24.418V25.762C153.869 25.8833 153.463 25.9767 153.024 26.042C152.595 26.1073 152.119 26.14 151.596 26.14ZM155.722 26V16.984H157.248V20.904L161.588 20.904V16.984H163.114V26H161.588V22.08L157.248 22.08V26H155.722Z" fill="#FDFDF9"/>
<path d="M34.295 26L34.295 2.172L48.429 2.172C50.871 2.172 52.758 2.75167 54.09 3.911C55.4467 5.07033 56.125 6.73533 56.125 8.906C56.125 10.09 55.9153 11.1013 55.496 11.94C55.1013 12.7787 54.571 13.4447 53.905 13.938C54.8423 14.382 55.5823 14.9617 56.125 15.677C56.6677 16.3677 56.939 17.4037 56.939 18.785C56.939 21.0297 56.199 22.7933 54.719 24.076C53.2637 25.3587 51.2163 26 48.577 26L34.295 26ZM42.694 11.311H46.024C47.208 11.311 47.8 10.7807 47.8 9.72C47.8 8.73333 47.208 8.24 46.024 8.24H42.694V11.311ZM42.694 19.932L46.024 19.932C47.208 19.932 47.8 19.4017 47.8 18.341C47.8 17.3543 47.208 16.861 46.024 16.861L42.694 16.861V19.932ZM56.5716 26L65.7476 2.172L75.0346 2.172L84.2106 26H74.8866L73.1846 21.56H67.5976L65.8956 26H56.5716ZM68.5596 15.455L72.1856 15.455L70.3726 10.904L68.5596 15.455ZM86.0733 26V2.172L105.128 2.172V8.61L95.0273 8.61V10.756H103.722V17.416H95.0273V19.562H105.128V26L86.0733 26ZM106.597 26V2.172L119.991 2.172C122.038 2.172 123.728 2.56666 125.06 3.356C126.392 4.12067 127.378 5.18133 128.02 6.538C128.686 7.87 129.019 9.387 129.019 11.089C129.019 12.6923 128.599 14.0983 127.761 15.307C126.947 16.5157 125.96 17.5147 124.801 18.304C125.072 18.4767 125.282 18.674 125.43 18.896C125.578 19.0933 125.701 19.303 125.8 19.525L128.612 26H119.288L116.957 20.709C116.833 20.413 116.698 20.2157 116.55 20.117C116.402 19.9937 116.192 19.932 115.921 19.932H115.551V26L106.597 26ZM115.551 12.939L117.734 12.939C119.189 12.939 119.917 12.3223 119.917 11.089C119.917 10.3983 119.744 9.905 119.399 9.609C119.078 9.313 118.572 9.165 117.882 9.165L115.551 9.165V12.939Z" fill="#FDFDF9"/>
<path d="M3.71429 1C1.66563 1 0 2.60156 0 4.57143V22.4286C0 24.3984 1.66563 26 3.71429 26H22.2857C24.3344 26 26 24.3984 26 22.4286V4.57143C26 2.60156 24.3344 1 22.2857 1H3.71429ZM7.42857 11.7143C8.4558 11.7143 9.28571 12.5123 9.28571 13.5V18.8571C9.28571 19.8449 8.4558 20.6429 7.42857 20.6429C6.40134 20.6429 5.57143 19.8449 5.57143 18.8571V13.5C5.57143 12.5123 6.40134 11.7143 7.42857 11.7143ZM11.1429 8.14286C11.1429 7.15513 11.9728 6.35714 13 6.35714C14.0272 6.35714 14.8571 7.15513 14.8571 8.14286V18.8571C14.8571 19.8449 14.0272 20.6429 13 20.6429C11.9728 20.6429 11.1429 19.8449 11.1429 18.8571V8.14286ZM18.5714 15.2857C19.5987 15.2857 20.4286 16.0837 20.4286 17.0714V18.8571C20.4286 19.8449 19.5987 20.6429 18.5714 20.6429C17.5442 20.6429 16.7143 19.8449 16.7143 18.8571V17.0714C16.7143 16.0837 17.5442 15.2857 18.5714 15.2857Z" fill="#FDFDF9"/>
</svg>
